<?xml version="1.0" encoding="UTF-8"?>
<svg version="1.1" xmlns="http://www.w3.org/2000/svg" width="64" height="64">
<path d="M0 0 C-0.33 1.32 -0.66 2.64 -1 4 C-3.64 4.33 -6.28 4.66 -9 5 C-9 6.98 -9 8.96 -9 11 C-4.05 11 0.9 11 6 11 C6 12.98 6 14.96 6 17 C5.34 17 4.68 17 4 17 C4 19.97 4 22.94 4 26 C5.4025 26.4125 6.805 26.825 8.25 27.25 C12.16824819 28.40242594 14.60609389 29.61813263 17 33 C17.50211616 35.91317173 17.42308098 38.74113114 17.3125 41.6875 C17.29799805 42.8640918 17.29799805 42.8640918 17.28320312 44.06445312 C17.16856123 49.83143877 17.16856123 49.83143877 16 51 C13.20006403 51.10103255 10.42531356 51.13970088 7.625 51.1328125 C6.78533691 51.13376923 5.94567383 51.13472595 5.08056641 51.13571167 C3.30175705 51.13639348 1.52294523 51.13453917 -0.25585938 51.13037109 C-2.98833776 51.12502283 -5.72065176 51.13031605 -8.453125 51.13671875 C-10.1770837 51.13605797 -11.90104229 51.13477681 -13.625 51.1328125 C-14.44790527 51.13483673 -15.27081055 51.13686096 -16.11865234 51.13894653 C-21.88504946 51.11495054 -21.88504946 51.11495054 -23 50 C-23.68136674 46.19153203 -24.09048166 42.33938362 -24.5625 38.5 C-24.70107422 37.43523438 -24.83964844 36.37046875 -24.98242188 35.2734375 C-25.74871915 29.12795984 -26.14959815 23.19206273 -26 17 C-26.66 17 -27.32 17 -28 17 C-28 15.02 -28 13.04 -28 11 C-23.05 11 -18.1 11 -13 11 C-13.04125 9.72125 -13.0825 8.4425 -13.125 7.125 C-13.1953125 4.9453125 -13.1953125 4.9453125 -13 3 C-9.39091002 -0.60908998 -4.88215348 -0.11353845 0 0 Z " fill="#CF2D3C" transform="translate(37,4)"/>
<path d="M0 0 C-0.33 1.32 -0.66 2.64 -1 4 C-3.64 4.33 -6.28 4.66 -9 5 C-9 6.98 -9 8.96 -9 11 C-4.05 11 0.9 11 6 11 C6 12.98 6 14.96 6 17 C-5.22 17 -16.44 17 -28 17 C-28 15.02 -28 13.04 -28 11 C-23.05 11 -18.1 11 -13 11 C-13.04125 9.72125 -13.0825 8.4425 -13.125 7.125 C-13.1953125 4.9453125 -13.1953125 4.9453125 -13 3 C-9.39091002 -0.60908998 -4.88215348 -0.11353845 0 0 Z " fill="#6FDCF5" transform="translate(37,4)"/>
<path d="M0 0 C2.9375 1.3125 2.9375 1.3125 5 3 C5.61875 3.45375 6.2375 3.9075 6.875 4.375 C8 6 8 6 7.6875 8.6875 C7.460625 9.450625 7.23375 10.21375 7 11 C2.30886953 12.34559608 -2.27862395 12.18407258 -7.125 12.1875 C-8.50365234 12.20586914 -8.50365234 12.20586914 -9.91015625 12.22460938 C-11.22693359 12.22750977 -11.22693359 12.22750977 -12.5703125 12.23046875 C-13.37227051 12.23457764 -14.17422852 12.23868652 -15.00048828 12.24291992 C-17 12 -17 12 -19 10 C-19 8.1875 -19 8.1875 -18 6 C-11.84365791 0.36760191 -8.18470464 -0.73584884 0 0 Z " fill="#ECAB01" transform="translate(46,31)"/>
<path d="M0 0 C1.19302734 -0.01224609 2.38605469 -0.02449219 3.61523438 -0.03710938 C5.33516602 -0.04000977 5.33516602 -0.04000977 7.08984375 -0.04296875 C8.13906006 -0.04707764 9.18827637 -0.05118652 10.26928711 -0.05541992 C13.0542317 0.18678092 14.69382799 0.75236134 17.0625 2.1875 C16.7325 3.1775 16.4025 4.1675 16.0625 5.1875 C10.92373014 6.90042329 5.50388115 6.37210346 0.125 6.375 C-1.06802734 6.38724609 -2.26105469 6.39949219 -3.49023438 6.41210938 C-5.21016602 6.41500977 -5.21016602 6.41500977 -6.96484375 6.41796875 C-8.01406006 6.42207764 -9.06327637 6.42618652 -10.14428711 6.43041992 C-12.9292317 6.18821908 -14.56882799 5.62263866 -16.9375 4.1875 C-16.6075 3.1975 -16.2775 2.2075 -15.9375 1.1875 C-10.79873014 -0.52542329 -5.37888115 0.00289654 0 0 Z " fill="#000002" transform="translate(31.9375,57.8125)"/>
<path d="M0 0 C8.91 0 17.82 0 27 0 C27 1.65 27 3.3 27 5 C24.46690278 7.53309722 17.47005092 6.18555171 14.0625 6.1875 C12.93908203 6.19974609 11.81566406 6.21199219 10.65820312 6.22460938 C9.58634766 6.22654297 8.51449219 6.22847656 7.41015625 6.23046875 C5.92721069 6.23663208 5.92721069 6.23663208 4.41430664 6.24291992 C2 6 2 6 0 4 C0 2.68 0 1.36 0 0 Z " fill="#C0A200" transform="translate(27,49)"/>
<path d="M0 0 C8.25 0 16.5 0 25 0 C25 1.32 25 2.64 25 4 C16.75 4 8.5 4 0 4 C0 2.68 0 1.36 0 0 Z " fill="#B24200" transform="translate(28,45)"/>
<path d="M0 0 C3.96 0 7.92 0 12 0 C12 1.98 12 3.96 12 6 C0.78 6 -10.44 6 -22 6 C-21.67 5.34 -21.34 4.68 -21 4 C-14.4 4 -7.8 4 -1 4 C-0.67 2.68 -0.34 1.36 0 0 Z " fill="#35CFF1" transform="translate(31,15)"/>
<path d="M0 0 C-0.33 1.32 -0.66 2.64 -1 4 C-3.64 4.33 -6.28 4.66 -9 5 C-9 6.98 -9 8.96 -9 11 C-10.32 11 -11.64 11 -13 11 C-13.1953125 4.9453125 -13.1953125 4.9453125 -13 3 C-9.39091002 -0.60908998 -4.88215348 -0.11353845 0 0 Z " fill="#CC2F3D" transform="translate(37,4)"/>
<path d="M0 0 C8.25 0 16.5 0 25 0 C25 0.99 25 1.98 25 3 C16.75 3 8.5 3 0 3 C0 2.01 0 1.02 0 0 Z " fill="#F13E45" transform="translate(28,42)"/>
<path d="M0 0 C0.66 0 1.32 0 2 0 C2 0.66 2 1.32 2 2 C3.093125 1.79375 4.18625 1.5875 5.3125 1.375 C9 1 9 1 12 3 C11.01 4.485 11.01 4.485 10 6 C8.125 6.36328125 8.125 6.36328125 6 6.3125 C5.29875 6.30863281 4.5975 6.30476563 3.875 6.30078125 C2 6 2 6 0 4 C0 2.68 0 1.36 0 0 Z " fill="#F9A701" transform="translate(27,49)"/>
<path d="M0 0 C2.97 0 5.94 0 9 0 C9 0.99 9 1.98 9 3 C6.03 3 3.06 3 0 3 C0 2.01 0 1.02 0 0 Z " fill="#F4FCFE" transform="translate(13,16)"/>
<path d="M0 0 C1.98 0 3.96 0 6 0 C6 1.32 6 2.64 6 4 C4.02 4 2.04 4 0 4 C0 2.68 0 1.36 0 0 Z " fill="#973900" transform="translate(47,45)"/>
<path d="M0 0 C0.66 0.33 1.32 0.66 2 1 C2 2.32 2 3.64 2 5 C0.02 5 -1.96 5 -4 5 C-2.25 1.125 -2.25 1.125 0 0 Z " fill="#DA9300" transform="translate(52,36)"/>
</svg>
